<?xml version="1.0" encoding="UTF-8" standalone="no"?>
<svg
   width="65px"
   height="66px"
   viewBox="0 0 65 66"
   version="1.1"
   id="svg10"
   sodipodi:docname="logo-raw.svg"
   inkscape:version="1.1.1 (1:1.1+202109281949+c3084ef5ed)"
   xmlns:inkscape="http://www.inkscape.org/namespaces/inkscape"
   xmlns:sodipodi="http://sodipodi.sourceforge.net/DTD/sodipodi-0.dtd"
   xmlns="http://www.w3.org/2000/svg"
   xmlns:svg="http://www.w3.org/2000/svg">
  <defs
     id="defs14" />
  <sodipodi:namedview
     id="namedview12"
     pagecolor="#ffffff"
     bordercolor="#666666"
     borderopacity="1.0"
     inkscape:pageshadow="2"
     inkscape:pageopacity="0.0"
     inkscape:pagecheckerboard="0"
     showgrid="false"
     inkscape:zoom="13.227273"
     inkscape:cx="32.47079"
     inkscape:cy="33"
     inkscape:window-width="2488"
     inkscape:window-height="1376"
     inkscape:window-x="72"
     inkscape:window-y="27"
     inkscape:window-maximized="1"
     inkscape:current-layer="Group-2" />
  <title
     id="title2">Group 2</title>
  <g
     id="Webpages"
     stroke="none"
     stroke-width="1"
     fill="none"
     fill-rule="evenodd">
    <g
       id="Home"
       transform="translate(-54.000000, -45.000000)">
      <g
         id="Group-2"
         transform="translate(54.028777, 45.290000)">
        <path
           id="Rectangle"
           style="fill:#000000"
           d="M 0.029296875 0.2890625 L 0.029296875 65.144531 L 64.882812 65.144531 L 64.882812 0.2890625 L 0.029296875 0.2890625 z M 9.3398438 22.216797 L 13.107422 22.216797 C 15.609392 22.216797 17.307358 22.310948 18.203125 22.511719 C 19.083448 22.727939 19.809421 23.251947 20.380859 24.085938 C 20.936852 24.919928 21.214844 26.263696 21.214844 28.101562 C 21.214844 29.784986 21.015012 30.912937 20.628906 31.484375 C 20.227355 32.055812 19.455013 32.411421 18.28125 32.519531 C 19.331459 32.797528 20.056891 33.167531 20.412109 33.630859 C 20.767327 34.094186 20.999131 34.510558 21.091797 34.912109 C 21.164477 35.275504 21.209764 36.22728 21.214844 37.792969 L 21.214844 43.792969 L 16.273438 43.792969 L 16.273438 36.611328 C 16.273438 35.453008 16.181602 34.74284 16.011719 34.464844 C 15.841833 34.186847 15.393849 34.046875 14.667969 34.046875 L 14.667969 43.792969 L 9.3398438 43.792969 L 9.3398438 22.216797 z M 24.767578 22.216797 L 32.458984 22.216797 L 35.517578 43.792969 L 30.064453 43.792969 L 29.787109 39.916016 L 27.857422 39.916016 L 27.578125 43.792969 L 22.064453 43.792969 L 24.767578 22.216797 z M 34.898438 22.216797 L 40.072266 22.216797 L 40.644531 29.753906 L 41.185547 37.042969 C 41.386322 33.27457 41.880131 28.317279 42.652344 22.216797 L 48.166016 22.216797 C 48.174016 22.298507 48.184736 22.409044 48.197266 22.548828 L 48.216797 22.78125 C 48.309077 23.836248 48.487227 26.024849 48.736328 29.337891 L 49.339844 37.552734 L 49.449219 35.818359 C 49.760392 31.199572 50.218224 26.664744 50.822266 22.216797 L 55.996094 22.216797 L 53.632812 43.792969 L 46.992188 43.792969 C 46.389862 40.472453 45.849866 36.704202 45.371094 32.457031 C 45.154875 34.279454 44.660885 38.063149 43.888672 43.792969 L 37.292969 43.792969 L 34.898438 22.216797 z M 14.667969 25.892578 L 14.667969 30.697266 C 15.270295 30.697266 15.670861 30.618926 15.917969 30.433594 C 16.149633 30.263707 16.273438 29.707544 16.273438 28.75 L 16.273438 27.560547 C 16.273438 26.880999 16.149814 26.433017 15.933594 26.216797 C 15.70193 26.000577 15.270295 25.892578 14.667969 25.892578 z M 28.830078 27.005859 C 28.49401 29.664743 28.240236 31.860268 28.060547 33.599609 L 27.966797 34.53125 C 27.909737 35.119185 27.863238 35.641941 27.826172 36.101562 L 29.632812 36.101562 C 29.385706 33.661369 29.123518 30.619816 28.830078 27.005859 z "
           transform="translate(-0.028777,-0.29)" />
      </g>
    </g>
  </g>
</svg>
