<?xml version="1.0" encoding="utf-8"?>
<svg viewBox="0 0 384 512" width="384" height="512" xmlns="http://www.w3.org/2000/svg">
  <path d="M 237.55 33.966 L 237.55 139.112 L 332.842 139.112 L 237.55 33.966 Z M 261.373 244.259 L 118.435 244.259 L 118.435 296.832 L 261.373 296.832 L 261.373 244.259 Z M 213.727 139.112 L 213.727 33.966 L 82.699 33.966 C 62.964 33.966 46.965 51.619 46.965 73.396 L 46.965 415.122 C 46.965 436.891 62.964 454.552 82.699 454.552 L 297.107 454.552 C 316.844 454.552 332.842 436.899 332.842 415.122 L 332.842 165.398 L 238.22 165.398 C 224.373 165.398 213.727 153.652 213.727 139.112 Z M 94.611 93.111 C 94.611 89.521 97.313 86.539 100.567 86.539 L 160.124 86.539 C 163.4 86.539 166.081 89.521 166.081 93.111 L 166.081 106.254 C 166.081 109.852 163.4 112.825 160.124 112.825 L 100.567 112.825 C 97.313 112.825 94.611 109.852 94.611 106.254 L 94.611 93.111 Z M 94.611 145.684 C 94.611 142.07 97.313 139.112 100.567 139.112 L 160.124 139.112 C 163.4 139.112 166.081 142.07 166.081 145.684 L 166.081 158.827 C 166.081 162.442 163.4 165.398 160.124 165.398 L 100.567 165.398 C 97.313 165.398 94.611 162.442 94.611 158.827 L 94.611 145.684 Z M 285.196 395.407 C 285.196 399.001 282.498 401.979 279.24 401.979 L 219.682 401.979 C 216.407 401.979 213.727 399.021 213.727 395.407 L 213.727 382.264 C 213.727 378.67 216.425 375.692 219.682 375.692 L 279.24 375.692 C 282.498 375.692 285.196 378.67 285.196 382.264 L 285.196 395.407 Z M 285.196 231.116 L 285.196 309.975 C 285.196 317.266 279.892 323.118 273.284 323.118 L 106.523 323.118 C 99.919 323.118 94.611 317.287 94.611 309.975 L 94.611 231.116 C 94.611 223.804 99.919 217.972 106.523 217.972 L 273.284 217.972 C 279.91 217.972 285.196 223.804 285.196 231.116 Z" style="fill: rgb(154, 154, 154);"/>
</svg>